<svg width="1000" height="1000" viewBox="0 0 1000 1000" fill="none" xmlns="http://www.w3.org/2000/svg">
<g clip-path="url(#clip0_1322_450)">
<path fill-rule="evenodd" clip-rule="evenodd" d="M457.278 1.31915C362.149 9.96515 275.01 43.4511 199.7 100.303C145.711 141.058 99.1244 193.95 66.2333 251.831C22.8396 328.197 0.761719 411.825 0.761719 499.831C0.761719 716.013 138.381 906.803 343.392 974.839C423.246 1001.34 512.02 1007.12 594.641 991.205C668.375 976.999 738.057 946.284 798.483 901.352C904.483 822.532 975.474 703.996 994.636 573.831C998.853 545.185 999.236 539.01 999.236 499.831C999.236 461.789 998.878 455.548 995.153 428.831C984.375 351.494 953.902 275.019 908.286 210.83C858.567 140.867 792.998 85.5581 715.521 48.2271C662.023 22.4511 604.203 6.79715 542.193 1.30215C522.361 -0.455854 476.705 -0.445854 457.278 1.31915ZM538.854 39.3181C639.317 47.8841 730.299 86.8771 806.74 154.13C825.777 170.879 851.984 198.991 866.054 217.757L871.733 225.331L813.607 225.932C781.637 226.262 749.861 226.852 742.993 227.242L730.505 227.951L726.01 221.162C720.169 212.343 705.719 197.701 695.246 189.993C664.499 167.361 623.826 153.782 571.664 148.733C556.118 147.229 516.448 147.236 499.236 148.747C469.207 151.383 436.966 156.835 416.438 162.749C396.567 168.474 370.74 180.055 350.147 192.475C273.796 238.523 213.37 321.921 198.919 401.194C198.102 405.669 197.163 415.599 196.832 423.26L196.228 437.189L199.36 434.957C207.223 429.351 220.892 424.831 229.976 424.831H234.342L235.007 418.081C237.516 392.626 249.891 358.072 266.238 330.875C301.097 272.879 349.813 229.84 407.179 206.354C438.786 193.415 486.052 185.84 535.2 185.838C584.475 185.837 620.938 192.775 651.365 207.942C681.395 222.91 699.737 242.889 709.101 270.831C712.225 280.151 712.273 280.577 711.656 293.331C710.639 314.338 706.918 341.866 702.155 363.617C701.158 368.174 700.637 372.085 700.998 372.308C701.358 372.531 707.246 372.701 714.081 372.686C724.883 372.662 727.49 372.995 734.002 375.237C738.122 376.656 741.814 377.82 742.204 377.824C743.279 377.835 744.77 371.507 747.425 355.665C751.105 333.717 752.358 313.535 751.643 287.74L751.016 265.149L773.64 264.49C802.606 263.646 877.796 263.635 889.591 264.474L898.634 265.116L907.193 281.224C932.956 329.7 949.54 380.001 957.2 432.895C960.779 457.608 961.274 465.848 961.25 500.331C961.225 536.785 960.289 549.699 955.708 576.793C952.399 596.365 942.795 635.868 940.793 638.138C940.129 638.891 928.728 613.472 923.947 600.581C918.519 585.948 917.276 583.401 914.016 580.231C906.163 572.598 892.979 573.435 886.608 581.972C885.229 583.82 869.806 609.181 852.334 638.331C834.863 667.481 820.083 691.67 819.492 692.083C818.901 692.497 814.294 694.172 809.254 695.804C782.87 704.354 732.454 708.2 675.32 706.021C649.375 705.032 601.287 702.064 600.419 701.398C600.163 701.202 612.069 669.671 633.471 613.87L648.989 573.409L643.733 567.87C636.761 560.523 630.402 550.981 626.51 542.026C624.764 538.008 623.116 534.502 622.85 534.234C622.582 533.967 619.962 537.029 617.024 541.04C586.095 583.279 557.559 611.201 533.893 622.379C523.849 627.123 515.314 628.23 494.741 627.458C452.661 625.878 418.294 618.822 386.862 605.308L378.556 601.737L361.473 613.963C352.078 620.688 344.391 626.484 344.391 626.844C344.391 628.815 382.381 645.284 398.587 650.34L407.328 653.067V680.842C407.328 723.998 410.813 750.594 421.018 785.331C432.164 823.27 451.116 858.915 477.642 891.831C492.222 909.923 520.592 936.542 541.503 951.75C546.278 955.223 550.185 958.39 550.185 958.789C550.185 960.064 520.387 961.844 499.236 961.832C420.921 961.789 344.136 941.769 274.961 903.357C232.928 880.017 189.891 845.514 157.237 808.975C66.1843 707.088 25.1353 574.38 42.7457 438.831C57.2412 327.26 113.309 223.556 199.045 149.737C220.188 131.533 249.787 110.506 271.464 98.2891C331.614 64.3901 395.417 44.8421 465.27 38.9121C481.316 37.5491 520.661 37.7671 538.854 39.3181ZM490.745 316.314C461.19 321.818 437.536 342.796 428.706 371.331C427.263 375.994 426.845 380.562 426.829 391.831C426.812 404.381 427.116 407.222 429.096 412.956C433.567 425.903 442.913 438.141 453.57 445.007C456.2 446.702 458.223 448.194 458.065 448.324C457.908 448.453 439.571 461.532 417.318 477.387C395.065 493.243 349.515 525.746 316.095 549.616C282.675 573.486 255.163 592.847 254.958 592.642C254.752 592.436 256.35 587.473 258.51 581.613C267.502 557.21 270.351 527.108 265.652 506.159C261.446 487.407 251.187 468.812 242.508 464.208C237.15 461.365 229.005 461.026 223.937 463.434C219.134 465.714 213.824 471.997 212.482 476.982C210.847 483.061 212.013 488.335 216.722 496.152C223.197 506.903 224.667 512.378 225.247 527.921C225.636 538.313 225.36 543.489 224.072 549.921C218.902 575.76 205.067 602.624 182.263 631.108C177.762 636.731 165.245 650.342 154.449 661.355C134.684 681.517 132.629 684.327 132.609 691.215C132.589 697.982 138.098 706.515 144.648 709.86C149.586 712.382 157.926 712.466 162.612 710.042C164.513 709.058 181.804 696.993 201.034 683.231C220.265 669.469 281.629 625.639 337.398 585.833C393.167 546.026 457.642 499.992 480.676 483.536L522.555 453.615L581.575 452.77C614.035 452.305 647.639 451.904 656.247 451.878L671.901 451.831L667.164 461.142C661.33 472.613 657.491 484.619 656.035 495.948C652.63 522.451 667.926 548.765 690.858 555.855C721.003 565.175 758.966 541.914 810.853 482.331C822.858 468.545 840.369 445.333 842.357 440.573C846.798 429.933 841.219 417.416 830.148 413.181C824.848 411.153 817.194 411.879 812.361 414.869C810.48 416.033 804.465 422.934 798.996 430.205C763.217 477.758 721.191 515.831 704.479 515.831C701.628 515.831 698.427 511.366 697.408 505.965C695.135 493.926 707.488 470.399 727.384 448.873C735.283 440.326 736.999 436.927 736.999 429.823C736.999 420.826 730.455 412.204 721.997 410.055C719.577 409.44 691.695 409.442 644.621 410.06C604.144 410.592 570.853 410.853 570.641 410.64C570.428 410.427 570.968 408.245 571.839 405.792C574.285 398.906 574.745 382.552 572.744 373.55C566.252 344.342 540.195 320.147 510.623 315.868C502.042 314.626 499.5 314.683 490.745 316.314ZM513.722 360.282C527.573 366.472 536.125 384.756 530.61 396.39C523.058 412.319 491.672 420.247 476.767 409.992C460.969 399.121 466.893 371.656 487.266 361.322C496.81 356.481 504.535 356.177 513.722 360.282ZM901.007 644.581C906.841 657.522 914.119 672.379 917.954 679.171C920.076 682.932 921.81 686.757 921.805 687.671C921.783 691.627 904.291 724.966 891.552 745.331C881.242 761.813 864.004 785.557 853.798 797.331C815.407 841.621 776.618 873.946 728.989 901.342C694.006 921.463 655.515 937.197 617.561 946.891L608.512 949.202L599.165 943.847C573.645 929.229 550.33 911.743 529.812 891.831C513.826 876.319 502.573 863.017 491.744 846.831C459.939 799.294 445.333 748.087 445.301 684.002L445.29 662.672L448.037 663.236C461.429 665.984 508.476 667.076 522.713 664.969C533.388 663.389 554.278 657.324 561.139 653.813C564.18 652.256 570.026 648.722 574.13 645.959C578.234 643.197 581.708 641.052 581.849 641.193C581.991 641.335 575.823 657.931 568.143 678.074C560.164 699.004 554.19 716.119 554.203 718.014C554.252 725.351 560.265 733.42 567.393 735.711C573.806 737.773 623.795 742.019 662.758 743.811C753.499 747.986 824.803 738.669 846.23 719.836C848.303 718.015 859.031 701.235 873.407 677.329C886.472 655.605 897.341 637.831 897.562 637.831C897.783 637.831 899.332 640.869 901.007 644.581Z" fill="#828282"/>
</g>
<defs>
<clipPath id="clip0_1322_450">
<rect width="1000" height="1000" fill="white"/>
</clipPath>
</defs>
</svg>
